<svg width="97" height="96" viewBox="0 0 97 96" fill="none" xmlns="http://www.w3.org/2000/svg">
<g clip-path="url(#clip0_139_31)">
<path d="M76.6757 5.0816C76.8419 5.13308 76.8419 5.13308 77.0216 5.25386C77.8123 7.92432 76.8448 11.214 75.5596 13.5725C74.7658 14.9912 73.7372 16.2316 72.6108 17.398C72.5702 17.4403 72.5296 17.4826 72.4878 17.5262C71.929 18.1061 71.3402 18.6223 70.7081 19.1206C70.6121 19.1989 70.5163 19.2774 70.4206 19.3561C69.6788 19.9621 68.9068 20.5144 68.1179 21.0578C67.7055 21.3419 67.2979 21.6321 66.8919 21.9252C66.8284 21.971 66.7648 22.0168 66.6994 22.0641C66.5716 22.1564 66.4439 22.2487 66.3161 22.341C65.9931 22.5744 65.6695 22.8069 65.3459 23.0394C65.2161 23.1329 65.0863 23.2263 64.9564 23.3197C64.6982 23.5054 64.4399 23.6909 64.1814 23.8762C62.8722 24.8152 61.5741 25.7683 60.2846 26.734C59.7993 27.0973 59.3112 27.4567 58.8216 27.8142C58.1606 28.2973 57.5077 28.7904 56.8567 29.2867C56.3554 29.6683 55.8498 30.0433 55.3405 30.4142C54.7396 30.8522 54.1497 31.3023 53.5638 31.76C53.101 32.1204 52.6311 32.4698 52.1568 32.8151C51.5526 33.2549 50.9589 33.7058 50.3699 34.1655C49.8892 34.54 49.4027 34.9063 48.9135 35.2697C48.2907 35.7326 47.6741 36.2025 47.0618 36.679C46.4411 37.1619 45.8153 37.6379 45.1891 38.1137C44.9383 38.3046 44.688 38.4962 44.4378 38.688C44.3478 38.757 44.2577 38.8261 44.1649 38.8972C44.0766 38.965 43.9883 39.0327 43.8973 39.1025C43.2152 39.6256 42.5322 40.1474 41.8481 40.668C41.2906 41.0924 40.7344 41.5183 40.1784 41.9447C39.991 42.0883 39.8036 42.2318 39.6162 42.3754C39.5225 42.4471 39.4288 42.5189 39.3351 42.5907C39.1478 42.7342 38.9604 42.8778 38.773 43.0213C38.7267 43.0568 38.6803 43.0923 38.6326 43.1288C38.5384 43.201 38.4441 43.2732 38.3498 43.3454C38.1241 43.5183 37.8985 43.6913 37.673 43.8644C37.4412 44.0423 37.2093 44.2198 36.9772 44.3972C36.8522 44.4928 36.7274 44.5884 36.6025 44.6842C31.7134 48.4321 26.1954 50.5868 19.9196 49.804C16.1927 49.299 12.7643 47.8483 10.032 45.249C9.9127 45.1358 9.79202 45.0241 9.67129 44.9124C9.02049 44.2925 8.48283 43.6046 7.95203 42.882C7.85174 42.746 7.74911 42.6118 7.64595 42.478C7.33323 42.0542 7.23273 41.7831 7.31352 41.2557C7.50427 40.9295 7.50427 40.9295 7.73107 40.869C8.43521 40.8893 9.12346 41.0051 9.81758 41.1173C12.2995 41.514 14.7233 41.7099 17.2374 41.718C17.407 41.7186 17.5767 41.7197 17.7464 41.7207C23.0864 41.746 27.7492 40.5399 32.2125 37.6399C32.628 37.3709 33.0464 37.1061 33.4649 36.8416C33.5431 36.792 33.6214 36.7425 33.702 36.6914C35.0764 35.8213 36.4555 34.9588 37.837 34.1C38.0972 33.9381 38.3573 33.776 38.6172 33.6138C39.6041 32.9981 40.5938 32.3873 41.5862 31.7804C42.3102 31.3373 43.0314 30.8897 43.7517 30.4406C44.7847 29.7966 45.8208 29.1578 46.8591 28.5224C47.0484 28.4066 47.2377 28.2907 47.427 28.1749C47.5217 28.1169 47.6164 28.059 47.7139 27.9993C48.3517 27.6086 48.9872 27.2145 49.6216 26.8183C50.3723 26.3497 51.1272 25.8885 51.8849 25.4312C52.4831 25.0695 53.0774 24.7018 53.6703 24.3314C54.4263 23.859 55.1864 23.3941 55.9497 22.9335C56.548 22.5718 57.1423 22.2041 57.7351 21.8336C58.4096 21.4122 59.0867 20.9957 59.7676 20.5848C60.5301 20.1245 61.2875 19.6566 62.0429 19.1848C62.6806 18.7869 63.3208 18.393 63.9622 18.0009C64.9524 17.3952 65.9391 16.7842 66.9233 16.169C67.1503 16.0273 67.3778 15.8864 67.6054 15.7458C68.8668 14.9635 70.1005 14.1464 71.227 13.1777C71.2955 13.1191 71.3639 13.0605 71.4345 13.0001C71.6574 12.8046 71.8753 12.6049 72.0919 12.4025C72.1373 12.3603 72.1826 12.318 72.2294 12.2745C74.2331 10.3925 75.6485 8.09108 76.3446 5.42938C76.4162 5.25386 76.4162 5.25386 76.6757 5.0816Z" fill="#FFFFFF"/>
<path d="M30.8378 0C31.3849 0.0500934 31.897 0.141696 32.4281 0.279309C32.5059 0.299001 32.5836 0.318693 32.6637 0.338982C32.9213 0.404366 33.1787 0.470492 33.4362 0.536622C33.6201 0.583469 33.8041 0.630269 33.988 0.677026C34.4835 0.803092 34.9789 0.929798 35.4742 1.05662C35.9948 1.1898 36.5155 1.32237 37.0362 1.455C37.8832 1.67081 38.7301 1.88694 39.577 2.10334C40.6459 2.37648 41.715 2.64892 42.7841 2.92098C43.0925 2.99945 43.4009 3.07794 43.7092 3.15642C43.784 3.17545 43.8587 3.19447 43.9357 3.21407C44.7649 3.42512 45.5939 3.63648 46.423 3.84787C48.0289 4.25734 49.6349 4.66654 51.241 5.07564C51.7829 5.2137 52.3249 5.35178 52.8669 5.48987C54.3576 5.86967 55.8483 6.24938 57.3391 6.62886C60.2971 7.38184 63.2549 8.13521 66.2116 8.89297C66.3986 8.94087 66.5855 8.98874 66.7725 9.03659C67.1126 9.12368 67.4528 9.21093 67.7929 9.2982C67.8928 9.32376 67.9927 9.34932 68.0956 9.37566C68.1861 9.39893 68.2767 9.4222 68.37 9.44617C68.4484 9.46628 68.5268 9.48638 68.6076 9.5071C68.7615 9.54847 68.9136 9.59622 69.0649 9.64642C68.9453 10.0035 68.6994 10.0985 68.3892 10.2816C68.2614 10.3591 68.1337 10.4367 68.0061 10.5144C67.9386 10.5555 67.871 10.5965 67.8014 10.6388C67.4565 10.8511 67.1176 11.0725 66.7784 11.2936C66.2923 11.6097 65.8053 11.9244 65.3166 12.2363C65.2235 12.2958 65.1304 12.3553 65.0345 12.4166C64.8464 12.536 64.6578 12.6545 64.4686 12.7722C64.0383 13.0411 63.6249 13.3011 63.2567 13.6516C62.9327 13.889 62.673 14.0478 62.2656 14.0279C61.9953 13.9838 61.7298 13.9285 61.4626 13.8684C61.3633 13.8477 61.2641 13.8269 61.1618 13.8056C60.9556 13.7624 60.7495 13.7183 60.5436 13.6735C60.2672 13.6135 59.9904 13.5559 59.7133 13.4996C59.1792 13.3909 58.6459 13.2792 58.1125 13.1673C57.9089 13.1247 57.7054 13.0821 57.5018 13.0396C57.0099 12.9368 56.5181 12.8338 56.0263 12.7307C55.4485 12.6096 54.8706 12.4887 54.2928 12.3679C53.493 12.2006 52.6933 12.0333 51.8935 11.8659C49.9497 11.459 48.0058 11.0527 46.0618 10.6467C45.9178 10.6166 45.7738 10.5865 45.6298 10.5564C45.0609 10.4376 44.4921 10.3188 43.9232 10.1999C42.5031 9.90333 41.0831 9.60664 39.6631 9.30993C39.3631 9.24725 39.0631 9.18457 38.7631 9.12188C38.2258 9.00963 37.6886 8.89738 37.1514 8.78513C37.1449 8.84052 37.1384 8.8959 37.1317 8.95296C36.6249 13.2884 36.0989 17.6215 35.5671 21.954C35.4796 22.6672 35.3923 23.3805 35.3052 24.0939C35.2199 24.792 35.1343 25.49 35.0487 26.1881C34.998 26.6006 34.9475 27.0131 34.8971 27.4256C34.8504 27.8083 34.8035 28.1908 34.7563 28.5734C34.7391 28.7134 34.722 28.8535 34.705 28.9935C34.6818 29.184 34.6583 29.3744 34.6347 29.5648C34.6217 29.6713 34.6086 29.7778 34.5952 29.8875C34.5568 30.1451 34.5568 30.1451 34.4703 30.4034C34.3078 30.5219 34.3078 30.5219 34.0943 30.6433C34.0159 30.6885 33.9375 30.7338 33.8567 30.7804C33.772 30.8283 33.6873 30.8762 33.6 30.9256C33.4237 31.0273 33.2475 31.1291 33.0713 31.2311C32.9846 31.2811 32.8979 31.3311 32.8086 31.3827C32.501 31.5619 32.1984 31.7479 31.8973 31.9376C31.0114 32.494 30.1186 33.0393 29.2259 33.5847C29.0326 33.7029 28.8395 33.8211 28.6465 33.9395C28.3735 34.1069 28.1003 34.2739 27.827 34.4407C27.7445 34.4914 27.662 34.5422 27.577 34.5944C27.4618 34.6646 27.4618 34.6646 27.3443 34.7361C27.2775 34.777 27.2107 34.8178 27.142 34.8599C26.9377 34.9729 26.7309 35.0559 26.5135 35.1405C26.5632 34.2727 26.6434 33.4142 26.7525 32.5516C26.7681 32.4264 26.7836 32.3012 26.7991 32.176C26.8413 31.8357 26.884 31.4955 26.9267 31.1553C26.9729 30.7869 27.0187 30.4184 27.0645 30.0498C27.1439 29.412 27.2235 28.7742 27.3033 28.1364C27.4191 27.2112 27.5345 26.2859 27.6498 25.3606C27.8374 23.855 28.0253 22.3494 28.2134 20.8439C28.3951 19.3892 28.5768 17.9345 28.7582 16.4797C28.7694 16.3903 28.7805 16.3009 28.792 16.2088C28.8702 15.582 28.9484 14.9552 29.0265 14.3283C29.1138 13.6284 29.2011 12.9285 29.2884 12.2285C29.299 12.1434 29.3096 12.0583 29.3206 11.9706C29.4663 10.8018 29.6122 9.63297 29.7582 8.4642C29.817 7.99304 29.8758 7.52188 29.9347 7.05072C29.98 6.68719 30.0254 6.32365 30.0709 5.96012C30.1126 5.62654 30.1543 5.29296 30.1959 4.95937C30.2118 4.83203 30.2277 4.70469 30.2436 4.57734C30.3315 3.87293 30.4183 3.1684 30.5033 2.46363C30.5112 2.39771 30.5192 2.33179 30.5274 2.26387C30.5653 1.94951 30.6031 1.63513 30.6405 1.32071C30.6538 1.20997 30.6671 1.09924 30.6808 0.985143C30.6982 0.839595 30.6982 0.839595 30.7159 0.691106C30.7476 0.457974 30.7884 0.229971 30.8378 0Z" fill="#FFFFFF"/>
<path d="M73.3027 22.1351C73.3305 23.5722 73.2498 25.0038 73.1724 26.4382C73.1531 26.7965 73.1344 27.1549 73.1156 27.5132C73.0788 28.2127 73.0416 28.9122 73.0042 29.6116C72.9606 30.4268 72.9174 31.2421 72.8743 32.0573C72.7973 33.5114 72.7199 34.9654 72.6423 36.4195C72.5671 37.8299 72.4921 39.2402 72.4176 40.6506C72.3363 42.1891 72.2548 43.7276 72.1729 45.266C72.1642 45.4299 72.1555 45.5938 72.1467 45.7577C72.1403 45.8787 72.1403 45.8787 72.1337 46.0021C72.1035 46.5703 72.0734 47.1385 72.0434 47.7067C72.0068 48.3983 71.9701 49.0898 71.933 49.7813C71.9141 50.1341 71.8952 50.4868 71.8767 50.8396C71.8597 51.1624 71.8425 51.4851 71.825 51.8078C71.8157 51.9801 71.8068 52.1524 71.7979 52.3248C71.7895 52.478 71.7895 52.478 71.7809 52.6343C71.7762 52.7225 71.7715 52.8107 71.7667 52.9015C71.7469 53.1307 71.7096 53.3477 71.6595 53.5721C70.7156 53.677 69.7732 53.6731 68.825 53.6759C68.6429 53.6767 68.4609 53.6776 68.2789 53.6785C67.7822 53.6808 67.2855 53.6826 66.7888 53.6843C66.256 53.6862 65.7232 53.6886 65.1904 53.6909C64.1558 53.6952 63.1212 53.6991 62.0866 53.7028C61.3109 53.7055 60.5352 53.7084 59.7595 53.7115C52.184 53.741 44.6086 53.7531 32.6541 53.7443C32.9582 53.4387 33.2692 53.149 33.6 52.8723C33.6487 52.8313 33.6975 52.7904 33.7477 52.7482C34.1423 52.419 34.5451 52.1011 34.9512 51.786C35.3387 51.485 35.7216 51.1788 36.1027 50.8698C36.1603 50.8231 36.2179 50.7763 36.2773 50.7282C36.4534 50.5853 36.6294 50.4422 36.8054 50.2992C37.5133 49.7237 38.2224 49.1508 38.9426 48.5907C39.3295 48.2891 39.7112 47.9816 40.0919 47.6722C40.6675 47.2045 41.246 46.7401 41.837 46.2916C42.0027 46.1618 42.0027 46.1618 42.178 45.9931C42.6428 45.5762 42.9604 45.3974 43.5891 45.4096C43.7231 45.4176 43.7231 45.4176 43.8598 45.4258C43.957 45.4287 44.0541 45.4317 44.1542 45.4347C44.4781 45.4453 44.8014 45.461 45.125 45.4768C45.3578 45.4855 45.5905 45.4939 45.8233 45.502C46.3235 45.5198 46.8235 45.5403 47.3235 45.5626C48.0464 45.5949 48.7695 45.6231 49.4926 45.6504C50.666 45.6948 51.8392 45.7423 53.0123 45.792C54.1515 45.8401 55.2908 45.8868 56.4302 45.9314C56.5005 45.9342 56.5707 45.9369 56.6432 45.9398C56.9959 45.9536 57.3485 45.9673 57.7012 45.9811C60.6244 46.0952 63.5474 46.2145 66.4703 46.3372C66.4764 46.2425 66.4764 46.2425 66.4826 46.1459C66.5837 44.5724 66.6849 42.9989 66.7862 41.4253C66.8304 40.7379 66.8746 40.0505 66.9188 39.363C66.9283 39.2157 66.9377 39.0685 66.9472 38.9212C66.9709 38.5534 66.9945 38.1855 67.018 37.8177C67.0607 37.1521 67.1036 36.4866 67.1481 35.8212C67.1729 35.4491 67.1976 35.0771 67.2221 34.705C67.2294 34.5946 67.2294 34.5946 67.2368 34.4819C67.3025 33.4804 67.3577 32.4787 67.4045 31.4761C67.4298 30.9351 67.458 30.3942 67.4868 29.8533C67.5099 29.4161 67.529 28.9789 67.5451 28.5414C67.556 28.2721 67.5707 28.003 67.5864 27.7339C67.5928 27.6102 67.5977 27.4863 67.6009 27.3624C67.6146 26.8469 67.627 26.4317 67.9741 26.0307C68.2141 25.8327 68.4572 25.6621 68.7189 25.4941C68.8746 25.3784 69.0297 25.2619 69.1838 25.1442C69.27 25.0805 69.3561 25.0167 69.4449 24.9511C69.7635 24.7149 70.0788 24.4745 70.3942 24.2341C71.0933 23.7017 71.795 23.1729 72.5027 22.6518C72.5733 22.5997 72.6439 22.5475 72.7166 22.4938C72.8134 22.4228 72.8134 22.4228 72.9122 22.3504C72.969 22.3086 73.0258 22.2669 73.0844 22.2239C73.2162 22.1351 73.2162 22.1351 73.3027 22.1351Z" fill="#FFFFFF"/>
<path d="M44.4162 75.2765C45.672 75.2765 46.9278 75.2765 48.2216 75.2765C48.2216 81.6147 48.2216 87.9529 48.2216 94.4832C47.0515 94.4832 45.8813 94.4832 44.6757 94.4832C44.4811 93.2236 44.4811 93.2236 44.5027 92.5884C44.4456 92.5884 44.3885 92.5884 44.3297 92.5884C44.3081 92.6376 44.2865 92.6868 44.2642 92.7374C43.7192 93.729 42.5781 94.2666 41.5439 94.5929C39.4479 95.1367 37.2127 94.7055 35.3405 93.7027C33.736 92.7381 32.7433 91.2129 32.2064 89.4467C32.0083 88.6032 31.9309 87.7913 31.9351 86.9254C31.9356 86.8194 31.9361 86.7133 31.9366 86.604C31.9639 84.5636 32.5744 82.5985 34.0375 81.1178C35.6132 79.6025 37.7155 79.1043 39.848 79.1341C41.1799 79.1763 42.6855 79.6819 43.7243 80.5304C43.9241 80.7578 44.1239 80.9851 44.3297 81.2194C44.3583 79.2583 44.3868 77.2971 44.4162 75.2765ZM36.4595 84.32C35.7644 85.3452 35.5486 86.643 35.7676 87.8513C35.9308 88.5759 36.1753 89.1598 36.6324 89.7461C36.6984 89.8367 36.7644 89.9273 36.8324 90.0207C37.5603 90.7793 38.5951 91.2381 39.6412 91.314C40.9579 91.3356 42.053 90.9417 43.0101 90.0378C43.9685 89.029 44.2015 87.8849 44.1807 86.5432C44.1379 85.4555 43.5903 84.4467 42.801 83.707C41.7813 82.8844 40.6924 82.579 39.3973 82.665C38.1961 82.7961 37.216 83.4065 36.4595 84.32Z" fill="#FFFFFF"/>
<path d="M63.1243 80.6057C64.6862 81.9225 65.3936 83.7186 65.5877 85.7151C65.6185 86.1346 65.6179 86.5534 65.6162 86.9739C65.6165 87.0609 65.6169 87.1479 65.6172 87.2375C65.6171 87.3636 65.6171 87.3636 65.6169 87.4923C65.6168 87.5676 65.6167 87.6428 65.6166 87.7204C65.6054 87.9374 65.6054 87.9374 65.5189 88.3681C61.6945 88.3681 57.87 88.3681 53.9297 88.3681C54.3224 89.5413 54.7262 90.2378 55.798 90.8147C57.2195 91.5006 58.9241 91.4825 60.4177 91.0128C61.101 90.7703 61.7219 90.411 62.3189 90.0045C62.4193 90.106 62.4193 90.106 62.5216 90.2094C63.1102 90.8042 63.1102 90.8042 63.7297 91.3664C63.9562 91.5607 64.1814 91.7555 64.4 91.9586C64.4509 92.0051 64.5019 92.0516 64.5544 92.0996C64.654 92.2439 64.654 92.2439 64.6439 92.4165C64.2549 93.2925 62.7704 93.8756 61.922 94.2111C59.44 95.0519 56.5369 95.2106 54.1158 94.0629C52.3254 93.1549 51.0282 91.7518 50.3892 89.8484C49.7001 87.5799 49.7648 84.9934 50.8811 82.8666C51.8175 81.1736 53.317 80.0302 55.1405 79.4107C57.7913 78.6762 60.8905 78.8956 63.1243 80.6057ZM54.7946 83.631C54.2464 84.347 54.2464 84.347 54.0162 85.1813C56.6134 85.1813 59.2106 85.1813 61.8865 85.1813C61.6899 84.3005 61.4219 83.6519 60.7115 83.0742C59.0278 82.008 56.1848 82.0817 54.7946 83.631Z" fill="#FFFFFF"/>
<path d="M27.516 80.6361C27.8335 80.8998 28.1253 81.1856 28.4162 81.4778C28.4857 81.5441 28.5551 81.6104 28.6267 81.6786C30.0297 83.1001 30.5878 85.1761 30.5811 87.1229C30.5277 89.3057 29.744 91.3175 28.1568 92.8468C26.345 94.5477 24.1074 94.8161 21.7222 94.7574C19.8758 94.6637 18.1323 93.7484 16.8585 92.4404C15.3709 90.7525 14.8168 88.6309 14.9108 86.4124C15.0543 84.3211 15.9304 82.4479 17.4517 80.9937C18.3002 80.2699 19.2261 79.8244 20.2865 79.4968C20.4224 79.4529 20.4224 79.4529 20.5612 79.408C22.7881 78.8115 25.6707 79.218 27.516 80.6361ZM19.6814 83.9997C18.7729 85.1983 18.5752 86.6095 18.7696 88.0633C19.0188 89.1756 19.6466 90.1892 20.6162 90.812C21.5924 91.3423 22.6984 91.4541 23.7841 91.2369C24.3542 91.0636 24.837 90.8039 25.3027 90.4352C25.3559 90.394 25.4091 90.3528 25.4639 90.3104C26.3428 89.5399 26.6932 88.3015 26.7696 87.1798C26.7861 85.8314 26.3115 84.6682 25.3838 83.704C24.4684 82.8299 23.4878 82.6326 22.2682 82.6547C21.2206 82.7032 20.3618 83.2254 19.6814 83.9997Z" fill="#FFFFFF"/>
<path d="M67.3351 79.4968C68.5909 79.4968 69.8467 79.4968 71.1405 79.4968C71.1454 80.3913 71.1454 80.3913 71.1503 81.3038C71.153 81.6834 71.1557 82.063 71.1586 82.4425C71.1633 83.0439 71.1677 83.6453 71.1705 84.2468C71.1728 84.7321 71.1763 85.2173 71.1806 85.7026C71.182 85.8871 71.183 86.0715 71.1836 86.2559C71.1884 87.7458 71.2221 89.1648 72.2811 90.3383C72.9457 90.9449 73.8646 91.203 74.7513 91.213C75.839 91.1515 76.6894 90.7235 77.427 89.9399C78.4634 88.6939 78.4449 87.1716 78.4497 85.6369C78.4511 85.459 78.4527 85.2811 78.4544 85.1033C78.4584 84.6391 78.461 84.175 78.4633 83.7109C78.4664 83.1519 78.4713 82.5928 78.4759 82.0338C78.4826 81.1882 78.487 80.3425 78.4919 79.4968C79.7191 79.4968 80.9464 79.4968 82.2108 79.4968C82.2108 84.4423 82.2108 89.3878 82.2108 94.4832C81.0977 94.4832 79.9846 94.4832 78.8378 94.4832C78.7522 93.9148 78.6666 93.3463 78.5784 92.7607C78.2966 92.7607 78.1619 92.9652 77.9568 93.1482C76.4317 94.4494 74.7422 94.7733 72.7707 94.6747C71.3784 94.5661 70.2073 93.9087 69.2378 92.9329C69.1839 92.8821 69.1299 92.8312 69.0743 92.7788C67.3243 90.9968 67.3207 88.2353 67.3267 85.9228C67.3268 85.737 67.327 85.5512 67.3271 85.3653C67.3274 84.8794 67.3282 84.3935 67.3292 83.9075C67.3302 83.3228 67.3306 82.738 67.3311 82.1533C67.332 81.2678 67.3336 80.3823 67.3351 79.4968Z" fill="#FFFFFF"/>
<path d="M96.0372 80.7874C96.098 80.8447 96.1589 80.902 96.2216 80.961C96.2216 81.3358 95.9907 81.5132 95.7513 81.7792C95.6559 81.8873 95.5605 81.9954 95.4652 82.1036C95.3938 82.1844 95.3938 82.1844 95.321 82.2669C95.0613 82.5666 94.8176 82.879 94.573 83.191C94.4088 83.369 94.2826 83.4556 94.0595 83.5449C94.0143 83.5064 93.9691 83.4678 93.9226 83.4281C92.8826 82.5774 91.8423 82.308 90.5189 82.3122C90.3866 82.3101 90.3866 82.3101 90.2515 82.308C89.46 82.3075 88.7157 82.4295 88.0919 82.942C87.8682 83.3068 87.865 83.6455 87.9189 84.0617C88.0848 84.4912 88.3302 84.632 88.7351 84.8153C89.3729 85.0536 90.0028 85.1368 90.6755 85.2074C94.8042 85.6409 94.8042 85.6409 95.9622 86.99C96.8307 88.0834 97.0906 89.3375 96.9598 90.708C96.7898 91.9204 96.12 92.9352 95.1838 93.7081C93.1895 95.1098 90.5707 95.198 88.2292 94.8413C86.7154 94.5762 85.3646 93.9237 84.2 92.9329C84.1378 92.8805 84.0756 92.8281 84.0115 92.7741C83.8718 92.6557 83.7331 92.5361 83.5946 92.4161C83.6429 92.0788 83.738 91.8673 83.9361 91.5909C83.9882 91.5176 84.0402 91.4444 84.0937 91.369C84.1484 91.2935 84.2031 91.2181 84.2595 91.1404C84.339 91.0287 84.339 91.0287 84.4201 90.9148C84.7433 90.4625 85.074 90.0162 85.4108 89.5739C85.4559 89.6082 85.5009 89.6426 85.5474 89.678C85.7311 89.8174 85.9166 89.9543 86.1027 90.0907C86.161 90.134 86.2193 90.1773 86.2794 90.2219C87.71 91.2323 89.6326 91.7616 91.3784 91.5549C91.9927 91.4287 92.5218 91.1736 92.9351 90.6936C93.1574 90.3303 93.1565 89.9887 93.1081 89.5739C92.9652 89.2466 92.8002 89.077 92.5027 88.8849C91.6782 88.5883 90.8184 88.4981 89.9513 88.4112C88.7083 88.2856 87.5663 88.0971 86.4486 87.5068C86.3761 87.4698 86.3035 87.4329 86.2287 87.3948C85.2137 86.8384 84.5208 86.0526 84.1909 84.9472C84.0968 84.5545 84.0836 84.1734 84.0865 83.771C84.087 83.6988 84.0875 83.6267 84.088 83.5523C84.1099 82.4419 84.5391 81.5024 85.3243 80.7026C88.3155 78.2965 93.0508 78.5666 96.0372 80.7874Z" fill="#FFFFFF"/>
<path d="M13.8642 80.7275C14.0477 80.8886 14.2281 81.0517 14.4054 81.2194C14.3554 81.5237 14.25 81.6625 14.0291 81.8748C13.9696 81.9327 13.9102 81.9907 13.849 82.0504C13.7864 82.1101 13.7239 82.1699 13.6595 82.2314C13.241 82.6351 12.8398 83.039 12.4705 83.4884C12.3162 83.6447 12.1909 83.7294 11.9838 83.8033C11.7693 83.7003 11.7693 83.7003 11.5351 83.5341C10.405 82.7708 9.21314 82.5739 7.86724 82.8286C7.10999 83.0631 6.45518 83.4677 5.92974 84.0616C5.88815 84.1081 5.84657 84.1545 5.80372 84.2023C4.99542 85.1764 4.82109 86.3684 4.8919 87.5929C5.04945 88.6838 5.45076 89.5993 6.27568 90.349C7.3462 91.1366 8.56565 91.3385 9.87095 91.1706C10.6732 91.0214 11.3476 90.7465 11.9784 90.2252C12.1568 90.0907 12.1568 90.0907 12.3255 90.1119C12.6206 90.22 12.8133 90.4548 13.0284 90.6751C13.0778 90.7246 13.1272 90.7742 13.1781 90.8253C13.3356 90.9836 13.4921 91.1427 13.6487 91.3018C13.7554 91.4094 13.8621 91.5169 13.9689 91.6243C14.2304 91.8876 14.4911 92.1516 14.7514 92.4161C14.2607 93.4466 12.9187 94.0829 11.9014 94.4809C9.71313 95.2156 7.24991 95.0809 5.15136 94.1387C5.00319 94.0723 5.00319 94.0723 4.85203 94.0045C4.11534 93.6411 3.56089 93.1653 2.9892 92.5884C2.93044 92.5298 2.87169 92.4711 2.81116 92.4108C1.56257 91.0815 1.0804 89.197 1.00001 87.4207C0.99644 87.3543 0.992872 87.2879 0.989196 87.2195C0.957451 86.0616 1.13966 84.8954 1.51893 83.8033C1.54903 83.7159 1.57913 83.6285 1.61014 83.5385C2.27348 81.7959 3.62314 80.5689 5.28109 79.7714C8.07579 78.5931 11.4882 78.7523 13.8642 80.7275Z" fill="#FFFFFF"/>
</g>
<defs>
<clipPath id="clip0_139_31">
<rect width="97" height="96" fill="white"/>
</clipPath>
</defs>
</svg>
