<svg width="71" height="54" viewBox="0 0 71 54" fill="none" xmlns="http://www.w3.org/2000/svg">
<g clip-path="url(#clip0_173_39)">
<path d="M69.6757 5.0816C69.8419 5.13308 69.8419 5.13308 70.0216 5.25386C70.8123 7.92432 69.8448 11.214 68.5596 13.5725C67.7658 14.9912 66.7372 16.2316 65.6108 17.398C65.5702 17.4403 65.5296 17.4826 65.4878 17.5262C64.929 18.1061 64.3402 18.6223 63.7081 19.1206C63.6121 19.1989 63.5163 19.2774 63.4206 19.3561C62.6788 19.9621 61.9068 20.5144 61.1179 21.0578C60.7055 21.3419 60.2979 21.6321 59.8919 21.9252C59.8284 21.971 59.7648 22.0168 59.6994 22.0641C59.5716 22.1564 59.4438 22.2487 59.3161 22.341C58.9931 22.5744 58.6695 22.8069 58.3459 23.0394C58.2161 23.1329 58.0862 23.2263 57.9564 23.3197C57.6982 23.5054 57.4399 23.6909 57.1814 23.8762C55.8722 24.8152 54.574 25.7683 53.2846 26.734C52.7992 27.0973 52.3112 27.4567 51.8216 27.8142C51.1605 28.2973 50.5077 28.7904 49.8567 29.2867C49.3554 29.6683 48.8498 30.0433 48.3405 30.4142C47.7395 30.8522 47.1497 31.3023 46.5638 31.76C46.1009 32.1204 45.6311 32.4698 45.1567 32.8151C44.5526 33.2549 43.9589 33.7058 43.3699 34.1655C42.8892 34.54 42.4027 34.9063 41.9135 35.2697C41.2907 35.7326 40.6741 36.2025 40.0617 36.679C39.4411 37.1619 38.8153 37.6379 38.1891 38.1137C37.9383 38.3046 37.688 38.4962 37.4378 38.688C37.3477 38.757 37.2577 38.8261 37.1649 38.8972C37.0766 38.965 36.9883 39.0327 36.8973 39.1025C36.2152 39.6256 35.5321 40.1474 34.8481 40.668C34.2906 41.0924 33.7343 41.5183 33.1784 41.9447C32.991 42.0883 32.8036 42.2318 32.6162 42.3754C32.5225 42.4471 32.4288 42.5189 32.3351 42.5907C32.1477 42.7342 31.9603 42.8778 31.773 43.0213C31.7266 43.0568 31.6803 43.0923 31.6326 43.1288C31.5383 43.201 31.4441 43.2732 31.3498 43.3454C31.1241 43.5183 30.8985 43.6913 30.673 43.8644C30.4412 44.0423 30.2093 44.2198 29.9772 44.3972C29.8522 44.4928 29.7273 44.5884 29.6025 44.6842C24.7134 48.4321 19.1954 50.5868 12.9196 49.804C9.19264 49.299 5.76425 47.8483 3.03196 45.249C2.91268 45.1358 2.792 45.0241 2.67127 44.9124C2.02047 44.2925 1.48282 43.6046 0.952017 42.882C0.851723 42.746 0.749097 42.6118 0.645936 42.478C0.333217 42.0542 0.232714 41.7831 0.313504 41.2557C0.504255 40.9295 0.504255 40.9295 0.73105 40.869C1.4352 40.8893 2.12344 41.0051 2.81756 41.1173C5.29944 41.514 7.72332 41.7099 10.2373 41.718C10.407 41.7186 10.5767 41.7197 10.7463 41.7207C16.0863 41.746 20.7492 40.5399 25.2124 37.6399C25.628 37.3709 26.0464 37.1061 26.4649 36.8416C26.5431 36.792 26.6214 36.7425 26.702 36.6914C28.0764 35.8213 29.4555 34.9588 30.837 34.1C31.0972 33.9381 31.3572 33.776 31.6172 33.6138C32.6041 32.9981 33.5938 32.3873 34.5862 31.7804C35.3102 31.3373 36.0314 30.8897 36.7517 30.4406C37.7847 29.7966 38.8208 29.1578 39.8591 28.5224C40.0484 28.4066 40.2377 28.2907 40.427 28.1749C40.5217 28.1169 40.6164 28.059 40.7139 27.9993C41.3517 27.6086 41.9872 27.2145 42.6216 26.8183C43.3723 26.3497 44.1271 25.8885 44.8848 25.4312C45.4831 25.0695 46.0774 24.7018 46.6703 24.3314C47.4263 23.859 48.1864 23.3941 48.9496 22.9335C49.5479 22.5718 50.1423 22.2041 50.7351 21.8336C51.4096 21.4122 52.0866 20.9957 52.7676 20.5848C53.5301 20.1245 54.2875 19.6566 55.0429 19.1848C55.6806 18.7869 56.3208 18.393 56.9621 18.0009C57.9524 17.3952 58.9391 16.7842 59.9233 16.169C60.1503 16.0273 60.3778 15.8864 60.6054 15.7458C61.8667 14.9635 63.1005 14.1464 64.227 13.1777C64.2955 13.1191 64.3639 13.0605 64.4344 13.0001C64.6574 12.8046 64.8753 12.6049 65.0919 12.4025C65.1373 12.3603 65.1826 12.318 65.2294 12.2745C67.2331 10.3925 68.6485 8.09108 69.3446 5.42938C69.4162 5.25386 69.4162 5.25386 69.6757 5.0816Z" fill="#3584C5"/>
<path d="M23.8378 0C24.3849 0.0500934 24.897 0.141696 25.4281 0.279309C25.5059 0.299001 25.5836 0.318693 25.6637 0.338982C25.9213 0.404366 26.1787 0.470492 26.4362 0.536622C26.6201 0.583469 26.8041 0.630269 26.988 0.677026C27.4835 0.803092 27.9789 0.929798 28.4742 1.05662C28.9948 1.1898 29.5155 1.32237 30.0362 1.455C30.8832 1.67081 31.7301 1.88694 32.577 2.10334C33.6459 2.37648 34.715 2.64892 35.7841 2.92098C36.0925 2.99945 36.4009 3.07794 36.7092 3.15642C36.784 3.17545 36.8587 3.19447 36.9357 3.21407C37.7649 3.42512 38.5939 3.63648 39.423 3.84787C41.0289 4.25734 42.6349 4.66654 44.241 5.07564C44.7829 5.2137 45.3249 5.35178 45.8669 5.48987C47.3576 5.86967 48.8483 6.24938 50.3391 6.62886C53.2971 7.38184 56.2549 8.13521 59.2116 8.89297C59.3986 8.94087 59.5855 8.98874 59.7725 9.03659C60.1126 9.12368 60.4528 9.21093 60.7929 9.2982C60.8928 9.32376 60.9927 9.34932 61.0956 9.37566C61.1861 9.39893 61.2767 9.4222 61.37 9.44617C61.4484 9.46628 61.5268 9.48638 61.6076 9.5071C61.7615 9.54847 61.9136 9.59622 62.0649 9.64642C61.9453 10.0035 61.6994 10.0985 61.3892 10.2816C61.2614 10.3591 61.1337 10.4367 61.0061 10.5144C60.9386 10.5555 60.871 10.5965 60.8014 10.6388C60.4565 10.8511 60.1176 11.0725 59.7784 11.2936C59.2923 11.6097 58.8053 11.9244 58.3166 12.2363C58.2235 12.2958 58.1304 12.3553 58.0345 12.4166C57.8464 12.536 57.6578 12.6545 57.4686 12.7722C57.0383 13.0411 56.6249 13.3011 56.2567 13.6516C55.9327 13.889 55.673 14.0478 55.2656 14.0279C54.9953 13.9838 54.7298 13.9285 54.4626 13.8684C54.3633 13.8477 54.2641 13.8269 54.1618 13.8056C53.9556 13.7624 53.7495 13.7183 53.5436 13.6735C53.2672 13.6135 52.9904 13.5559 52.7133 13.4996C52.1792 13.3909 51.6459 13.2792 51.1125 13.1673C50.9089 13.1247 50.7054 13.0821 50.5018 13.0396C50.0099 12.9368 49.5181 12.8338 49.0263 12.7307C48.4485 12.6096 47.8706 12.4887 47.2928 12.3679C46.493 12.2006 45.6933 12.0333 44.8935 11.8659C42.9497 11.459 41.0058 11.0527 39.0618 10.6467C38.9178 10.6166 38.7738 10.5865 38.6298 10.5564C38.0609 10.4376 37.4921 10.3188 36.9232 10.1999C35.5031 9.90333 34.0831 9.60664 32.6631 9.30993C32.3631 9.24725 32.0631 9.18457 31.7631 9.12188C31.2258 9.00963 30.6886 8.89738 30.1514 8.78513C30.1449 8.84052 30.1384 8.8959 30.1317 8.95296C29.6249 13.2884 29.0989 17.6215 28.5671 21.954C28.4796 22.6672 28.3923 23.3805 28.3052 24.0939C28.2199 24.792 28.1343 25.49 28.0487 26.1881C27.998 26.6006 27.9475 27.0131 27.8971 27.4256C27.8504 27.8083 27.8035 28.1908 27.7563 28.5734C27.7391 28.7134 27.722 28.8535 27.705 28.9935C27.6818 29.184 27.6583 29.3744 27.6347 29.5648C27.6217 29.6713 27.6086 29.7778 27.5952 29.8875C27.5568 30.1451 27.5568 30.1451 27.4703 30.4034C27.3078 30.5219 27.3078 30.5219 27.0943 30.6433C27.0159 30.6885 26.9375 30.7338 26.8567 30.7804C26.772 30.8283 26.6873 30.8762 26.6 30.9256C26.4237 31.0273 26.2475 31.1291 26.0713 31.2311C25.9846 31.2811 25.8979 31.3311 25.8086 31.3827C25.501 31.5619 25.1984 31.7479 24.8973 31.9376C24.0114 32.494 23.1186 33.0393 22.2259 33.5847C22.0326 33.7029 21.8395 33.8211 21.6465 33.9395C21.3735 34.1069 21.1003 34.2739 20.827 34.4407C20.7445 34.4914 20.662 34.5422 20.577 34.5944C20.4618 34.6646 20.4618 34.6646 20.3443 34.7361C20.2775 34.777 20.2107 34.8178 20.142 34.8599C19.9377 34.9729 19.7309 35.0559 19.5135 35.1405C19.5632 34.2727 19.6434 33.4142 19.7525 32.5516C19.7681 32.4264 19.7836 32.3012 19.7991 32.176C19.8413 31.8357 19.884 31.4955 19.9267 31.1553C19.9729 30.7869 20.0187 30.4184 20.0645 30.0498C20.1439 29.412 20.2235 28.7742 20.3033 28.1364C20.4191 27.2112 20.5345 26.2859 20.6498 25.3606C20.8374 23.855 21.0253 22.3494 21.2134 20.8439C21.3951 19.3892 21.5768 17.9345 21.7582 16.4797C21.7694 16.3903 21.7805 16.3009 21.792 16.2088C21.8702 15.582 21.9484 14.9552 22.0265 14.3283C22.1138 13.6284 22.2011 12.9285 22.2884 12.2285C22.299 12.1434 22.3096 12.0583 22.3206 11.9706C22.4663 10.8018 22.6122 9.63297 22.7582 8.4642C22.817 7.99304 22.8758 7.52188 22.9347 7.05072C22.98 6.68719 23.0254 6.32365 23.0709 5.96012C23.1126 5.62654 23.1543 5.29296 23.1959 4.95937C23.2118 4.83203 23.2277 4.70469 23.2436 4.57734C23.3315 3.87293 23.4183 3.1684 23.5033 2.46363C23.5112 2.39771 23.5192 2.33179 23.5274 2.26387C23.5653 1.94951 23.6031 1.63513 23.6405 1.32071C23.6538 1.20997 23.6671 1.09924 23.6808 0.985143C23.6982 0.839595 23.6982 0.839595 23.7159 0.691106C23.7476 0.457974 23.7884 0.229971 23.8378 0Z" fill="#4FC8F4"/>
<path d="M66.3027 22.1351C66.3305 23.5722 66.2498 25.0038 66.1724 26.4382C66.1531 26.7965 66.1344 27.1549 66.1156 27.5132C66.0788 28.2127 66.0416 28.9122 66.0042 29.6116C65.9606 30.4268 65.9174 31.2421 65.8743 32.0573C65.7973 33.5114 65.7199 34.9654 65.6423 36.4195C65.5671 37.8299 65.4921 39.2402 65.4176 40.6506C65.3363 42.1891 65.2548 43.7276 65.1729 45.266C65.1642 45.4299 65.1555 45.5938 65.1467 45.7577C65.1403 45.8787 65.1403 45.8787 65.1337 46.0021C65.1035 46.5703 65.0734 47.1385 65.0434 47.7067C65.0068 48.3983 64.9701 49.0898 64.933 49.7813C64.9141 50.1341 64.8952 50.4868 64.8767 50.8396C64.8597 51.1624 64.8425 51.4851 64.825 51.8078C64.8157 51.9801 64.8068 52.1524 64.7979 52.3248C64.7895 52.478 64.7895 52.478 64.7809 52.6343C64.7762 52.7225 64.7715 52.8107 64.7667 52.9015C64.7469 53.1307 64.7096 53.3477 64.6595 53.5721C63.7156 53.677 62.7732 53.6731 61.825 53.6759C61.6429 53.6767 61.4609 53.6776 61.2789 53.6785C60.7822 53.6808 60.2855 53.6826 59.7888 53.6843C59.256 53.6862 58.7232 53.6886 58.1904 53.6909C57.1558 53.6952 56.1212 53.6991 55.0866 53.7028C54.3109 53.7055 53.5352 53.7084 52.7595 53.7115C45.184 53.741 37.6086 53.7531 25.6541 53.7443C25.9582 53.4387 26.2692 53.149 26.6 52.8723C26.6487 52.8313 26.6975 52.7904 26.7477 52.7482C27.1423 52.419 27.5451 52.1011 27.9512 51.786C28.3387 51.485 28.7216 51.1788 29.1027 50.8698C29.1603 50.8231 29.2179 50.7763 29.2773 50.7282C29.4534 50.5853 29.6294 50.4422 29.8054 50.2992C30.5133 49.7237 31.2224 49.1508 31.9426 48.5907C32.3295 48.2891 32.7112 47.9816 33.0919 47.6722C33.6675 47.2045 34.246 46.7401 34.837 46.2916C35.0027 46.1618 35.0027 46.1618 35.178 45.9931C35.6428 45.5762 35.9604 45.3974 36.5891 45.4096C36.7231 45.4176 36.7231 45.4176 36.8598 45.4258C36.957 45.4287 37.0541 45.4317 37.1542 45.4347C37.4781 45.4453 37.8014 45.461 38.125 45.4768C38.3578 45.4855 38.5905 45.4939 38.8233 45.502C39.3235 45.5198 39.8235 45.5403 40.3235 45.5626C41.0464 45.5949 41.7695 45.6231 42.4926 45.6504C43.666 45.6948 44.8392 45.7423 46.0123 45.792C47.1515 45.8401 48.2908 45.8868 49.4302 45.9314C49.5005 45.9342 49.5707 45.9369 49.6432 45.9398C49.9959 45.9536 50.3485 45.9673 50.7012 45.9811C53.6244 46.0952 56.5474 46.2145 59.4703 46.3372C59.4764 46.2425 59.4764 46.2425 59.4826 46.1459C59.5837 44.5724 59.6849 42.9989 59.7862 41.4253C59.8304 40.7379 59.8746 40.0505 59.9188 39.363C59.9283 39.2157 59.9377 39.0685 59.9472 38.9212C59.9709 38.5534 59.9945 38.1855 60.018 37.8177C60.0607 37.1521 60.1036 36.4866 60.1481 35.8212C60.1729 35.4491 60.1976 35.0771 60.2221 34.705C60.2294 34.5946 60.2294 34.5946 60.2368 34.4819C60.3025 33.4804 60.3577 32.4787 60.4045 31.4761C60.4298 30.9351 60.458 30.3942 60.4868 29.8533C60.5099 29.4161 60.529 28.9789 60.5451 28.5414C60.556 28.2721 60.5707 28.003 60.5864 27.7339C60.5928 27.6102 60.5977 27.4863 60.6009 27.3624C60.6146 26.8469 60.627 26.4317 60.9741 26.0307C61.2141 25.8327 61.4572 25.6621 61.7189 25.4941C61.8746 25.3784 62.0297 25.2619 62.1838 25.1442C62.27 25.0805 62.3561 25.0167 62.4449 24.9511C62.7635 24.7149 63.0788 24.4745 63.3942 24.2341C64.0933 23.7017 64.795 23.1729 65.5027 22.6518C65.5733 22.5997 65.6439 22.5475 65.7166 22.4938C65.8134 22.4228 65.8134 22.4228 65.9122 22.3504C65.969 22.3086 66.0258 22.2669 66.0844 22.2239C66.2162 22.1351 66.2162 22.1351 66.3027 22.1351Z" fill="#4FC8F4"/>
</g>
<defs>
<clipPath id="clip0_173_39">
<rect width="71" height="54" fill="white"/>
</clipPath>
</defs>
</svg>
