<svg width="169" height="40" viewBox="0 0 169 40" fill="none" xmlns="http://www.w3.org/2000/svg">
<g clip-path="url(#clip0_117_45)">
<path d="M51.736 4.16666C51.9023 4.16666 52.0686 4.16666 52.24 4.16666C52.7365 6.62944 52.0942 9.07165 50.728 11.1666C49.1102 13.4147 46.9947 15.0111 44.7286 16.5674C44.088 17.0103 43.4544 17.4629 42.8215 17.9166C42.6334 18.0515 42.6334 18.0515 42.4414 18.1891C41.2597 19.039 40.0918 19.9067 38.9271 20.7793C38.5112 21.0903 38.0938 21.3992 37.6765 21.7083C36.59 22.5164 35.5114 23.3347 34.4319 24.1519C33.511 24.8485 32.5875 25.5413 31.66 26.2291C30.6958 26.9444 29.7385 27.6677 28.7856 28.3978C28.3753 28.712 27.9639 29.0247 27.5519 29.3366C27.4359 29.4244 27.3199 29.5122 27.2004 29.6026C26.9594 29.785 26.7184 29.9673 26.4773 30.1496C25.8482 30.6263 25.2219 31.1063 24.6001 31.5924C20.3211 34.936 16.1413 37.5592 10.4118 36.9656C8.00317 36.6568 5.75308 35.8692 3.856 34.3333C3.71263 34.2182 3.56927 34.103 3.42156 33.9844C2.4659 33.1758 1.5676 32.2929 0.999997 31.1666C0.969809 30.7005 0.969809 30.7005 0.999997 30.3333C1.60402 30.1522 2.05004 30.2151 2.66966 30.33C4.56054 30.6734 6.43417 30.7236 8.35 30.7291C8.48028 30.7304 8.61057 30.7316 8.74481 30.7329C13.2103 30.768 16.679 29.5173 20.4145 27.1041C20.7853 26.8666 21.1562 26.6293 21.5275 26.3926C21.6219 26.3323 21.7163 26.2721 21.8136 26.2101C23.0036 25.4529 24.2098 24.7219 25.4154 23.9894C26.6438 23.2428 27.8672 22.4887 29.0875 21.7291C30.5578 20.8147 32.0361 19.9141 33.5196 19.021C36.023 17.5133 38.508 15.9763 40.9894 14.4332C41.8119 13.9221 42.6359 13.4139 43.4646 12.9127C47.2331 10.6319 50.2308 8.43014 51.736 4.16666Z" fill="#3584C5"/>
<path d="M18.136 0.333313C19.0913 0.448438 20.0024 0.656681 20.9336 0.894958C21.0928 0.935166 21.252 0.975374 21.416 1.0168C21.9433 1.15015 22.4704 1.28437 22.9975 1.4186C23.3704 1.51307 23.7432 1.60748 24.1161 1.70184C25.1102 1.95355 26.1041 2.206 27.0979 2.45858C28.118 2.71769 29.1382 2.9761 30.1584 3.23456C31.7569 3.63957 33.3552 4.04491 34.9536 4.4505C37.3938 5.06969 39.8347 5.68651 42.2758 6.30229C43.1722 6.52842 44.0685 6.75477 44.9648 6.9811C45.4299 7.09851 45.8949 7.21591 46.36 7.33331C46.1625 7.92106 46.0404 7.97553 45.5246 8.29034C45.3872 8.37521 45.2498 8.46007 45.1082 8.54751C44.9634 8.63495 44.8187 8.72239 44.6695 8.81248C44.5293 8.89863 44.389 8.98478 44.2446 9.07355C43.9644 9.24556 43.6832 9.41587 43.4009 9.58445C43.0023 9.82432 43.0023 9.82432 42.6549 10.0887C41.7205 10.7632 41.0853 10.6685 39.976 10.5C39.4213 10.406 38.8713 10.2959 38.3208 10.1804C38.1648 10.1484 38.0089 10.1164 37.8483 10.0834C37.3384 9.97853 36.8289 9.87243 36.3194 9.76626C35.9626 9.6925 35.6058 9.6188 35.249 9.54516C34.5039 9.39118 33.7589 9.2366 33.014 9.08156C32.0603 8.88311 31.1063 8.68596 30.1522 8.48923C29.4165 8.33741 28.6809 8.18499 27.9454 8.03239C27.5937 7.95947 27.2419 7.88671 26.8901 7.81412C26.3987 7.71261 25.9075 7.61033 25.4163 7.50783C25.2717 7.47812 25.1272 7.44842 24.9783 7.41781C24.2466 7.26425 23.5451 7.08575 22.84 6.83331C22.8446 7.16089 22.8446 7.16089 22.8493 7.49509C22.8489 8.25489 22.7855 8.99166 22.6911 9.74493C22.6673 9.9432 22.6673 9.9432 22.6431 10.1455C22.5911 10.5771 22.5378 11.0086 22.4843 11.4401C22.4474 11.7423 22.4105 12.0446 22.3737 12.3469C22.2966 12.9779 22.2189 13.6088 22.1407 14.2397C22.0406 15.0475 21.9424 15.8555 21.8447 16.6635C21.7692 17.2867 21.6925 17.9098 21.6155 18.5328C21.5789 18.8308 21.5426 19.1287 21.5067 19.4267C21.4563 19.8428 21.4045 20.2587 21.3524 20.6746C21.3379 20.7971 21.3234 20.9195 21.3084 21.0457C21.1075 22.6143 21.1075 22.6143 20.4216 23.1442C20.256 23.2393 20.0903 23.3343 19.9197 23.4323C19.6462 23.5918 19.6462 23.5918 19.3671 23.7545C19.1757 23.863 18.9842 23.9715 18.787 24.0833C18.412 24.3002 18.0371 24.5173 17.6622 24.7344C17.4839 24.8364 17.3056 24.9385 17.1219 25.0436C16.6874 25.2964 16.2617 25.5583 15.8378 25.8281C15.28 26.1666 15.28 26.1666 14.944 26.1666C15.1286 24.611 15.3142 23.0554 15.5005 21.5C15.5149 21.3799 15.5293 21.2598 15.5441 21.1361C16.1103 16.4114 16.6996 11.6897 17.296 6.96873C17.3169 6.80291 17.3379 6.63708 17.3595 6.46624C17.6178 4.42186 17.8766 2.37755 18.136 0.333313Z" fill="#4FC8F4"/>
<path d="M111.712 11.1666C113.098 11.1666 114.484 11.1666 115.912 11.1666C115.912 17.9866 115.912 24.8066 115.912 31.8333C114.637 31.8333 113.362 31.8333 112.048 31.8333C111.704 31.4921 111.762 30.7826 111.712 30.3333C111.237 30.3333 111.132 30.5473 110.798 30.875C109.211 32.2568 107.396 32.334 105.372 32.2046C103.36 32.0036 101.487 31.0263 100.101 29.5788C98.3006 27.238 98.0661 24.6744 98.272 21.8333C98.52 20.0785 99.4479 18.3253 100.751 17.1107C102.898 15.5322 105.239 15.0948 107.848 15.3333C109.234 15.62 110.542 16.3388 111.544 17.3333C111.599 15.2983 111.655 13.2633 111.712 11.1666ZM103.312 20.6666C102.357 22.019 102.352 23.4019 102.472 25C102.619 25.561 102.83 26.0132 103.144 26.5C103.235 26.6431 103.235 26.6431 103.328 26.789C103.959 27.6452 104.85 28.0085 105.832 28.3333C107.429 28.4804 108.668 28.2232 110.011 27.3541C111.054 26.3193 111.424 25.2344 111.449 23.7916C111.427 22.4294 111.137 21.5169 110.234 20.4902C109.252 19.5527 108.202 19.1609 106.85 19.0937C105.475 19.1404 104.266 19.6972 103.312 20.6666Z" fill="#3584C5"/>
<path d="M49.552 16.5C49.446 19.4605 49.308 22.4182 49.1471 25.3763C49.1247 25.7923 49.1023 26.2084 49.08 26.6244C49.022 27.7034 48.9637 28.7823 48.9052 29.8613C48.8453 30.9687 48.7857 32.0761 48.7261 33.1836C48.6098 35.3446 48.493 37.5056 48.376 39.6666C46.71 39.6971 45.044 39.7245 43.378 39.75C43.2487 39.752 43.1194 39.7539 42.9862 39.756C37.6988 39.8359 32.4119 39.8477 27.124 39.8437C26.9335 39.8436 26.7429 39.8434 26.5466 39.8433C24.1911 39.8414 21.8355 39.8381 19.48 39.8333C19.48 39.7233 19.48 39.6133 19.48 39.5C19.7823 39.2468 20.0856 39.0132 20.404 38.7812C21.2841 38.1256 22.146 37.4523 22.9975 36.7604C23.986 35.9586 24.9828 35.1687 25.9896 34.3897C26.4461 34.0458 26.4461 34.0458 26.872 33.6666C27.4039 33.6462 27.9307 33.6391 28.4627 33.6406C28.6381 33.6409 28.8134 33.6412 28.9941 33.6415C31.8012 33.6593 34.6065 33.7879 37.4111 33.8984C38.1952 33.9292 38.9793 33.959 39.7634 33.9889C41.2903 34.0473 42.8171 34.1067 44.344 34.1666C44.3529 34.0065 44.3617 33.8464 44.3708 33.6815C44.7303 27.1927 44.7303 27.1927 44.9022 24.5025C44.9226 24.1797 44.9424 23.8568 44.9618 23.534C44.9908 23.0492 45.0216 22.5646 45.0527 22.0801C45.061 21.9372 45.0692 21.7943 45.0777 21.6472C45.2128 19.6302 45.2128 19.6302 45.9288 18.9381C46.0954 18.8245 46.2619 18.7108 46.4335 18.5937C46.6128 18.4687 46.7921 18.3437 46.9769 18.2148C47.0692 18.1521 47.1616 18.0895 47.2568 18.0249C47.7041 17.718 48.1386 17.394 48.5755 17.0729C49.3624 16.5 49.3624 16.5 49.552 16.5Z" fill="#4FC8F4"/>
<path d="M125.72 15.1263C128.26 15.0369 130.632 15.5679 132.553 17.3131C134.478 19.3379 134.811 21.9389 134.762 24.6126C134.728 25.1666 134.728 25.1666 134.56 25.3333C134.174 25.3491 133.787 25.3529 133.4 25.3522C133.278 25.3523 133.157 25.3523 133.032 25.3523C132.629 25.3522 132.227 25.3509 131.824 25.3496C131.546 25.3493 131.267 25.349 130.989 25.3489C130.254 25.3482 129.52 25.3466 128.785 25.3448C128.037 25.3431 127.288 25.3423 126.539 25.3415C125.069 25.3397 123.598 25.3368 122.128 25.3333C122.228 25.5722 122.329 25.8103 122.432 26.0482C122.488 26.1808 122.545 26.3135 122.603 26.4503C123.006 27.234 123.586 27.6744 124.398 28.0052C126.216 28.5609 128.158 28.5325 129.874 27.6517C130.026 27.5611 130.026 27.5611 130.182 27.4687C130.696 27.1666 130.696 27.1666 131.368 27.1666C131.736 27.4876 132.064 27.8027 132.397 28.1562C132.995 28.8259 132.995 28.8259 133.72 29.3333C133.72 29.4983 133.72 29.6633 133.72 29.8333C131.711 31.6575 128.857 32.466 126.176 32.3802C123.503 32.1391 121.269 31.3383 119.44 29.3333C117.791 27.1343 117.564 24.6574 117.76 22C118.117 20.0018 119.131 18.0683 120.784 16.8333C122.354 15.8713 123.875 15.2574 125.72 15.1263ZM122.968 20.1666C122.502 20.6836 122.299 21.153 122.128 21.8333C124.955 21.8333 127.783 21.8333 130.696 21.8333C130.191 20.4982 129.886 19.721 128.591 19.1315C126.548 18.4837 124.594 18.8024 122.968 20.1666Z" fill="#3584C5"/>
<path d="M93.7721 17.0989C95.4149 18.4252 96.4373 20.2599 96.76 22.3333C96.9341 25.2107 96.3921 27.3226 94.702 29.6979C93.0881 31.3354 91.0667 32.1629 88.7741 32.2154C86.1388 32.2366 83.9895 31.6151 82.018 29.8125C80.2652 27.9784 79.6838 25.5796 79.7448 23.112C79.924 20.79 80.9072 18.7428 82.648 17.1666C85.9897 14.6954 90.4064 14.6963 93.7721 17.0989ZM85 20.5C84.0851 22.011 83.7805 23.356 84.0635 25.11C84.3702 26.3175 84.9726 27.1869 86.008 27.8971C87.2396 28.5395 88.7669 28.555 90.0925 28.1771C91.1575 27.7003 91.9754 26.6799 92.392 25.6146C92.77 24.2192 92.7553 22.623 92.056 21.3333C91.3174 20.2704 90.4867 19.4755 89.2 19.1666C87.6409 18.9766 86.0553 19.2461 85 20.5Z" fill="#3584C5"/>
<path d="M136.576 15.6666C137.962 15.6666 139.348 15.6666 140.776 15.6666C140.777 15.9558 140.777 16.245 140.778 16.5429C140.781 17.5042 140.789 18.4654 140.798 19.4266C140.804 20.0088 140.808 20.5908 140.809 21.173C140.81 21.8441 140.817 22.5151 140.825 23.1862C140.825 23.3927 140.824 23.5992 140.823 23.8119C140.848 25.3001 141.122 26.4932 142.193 27.5833C143.203 28.1697 144.159 28.3029 145.312 28.1666C146.414 27.8737 147.246 27.3127 147.832 26.3333C148.383 25.1603 148.415 24.111 148.422 22.8281C148.426 22.5202 148.426 22.5202 148.431 22.2061C148.44 21.554 148.446 20.902 148.452 20.25C148.457 19.8064 148.463 19.3628 148.469 18.9193C148.484 17.835 148.494 16.7509 148.504 15.6666C149.89 15.6666 151.276 15.6666 152.704 15.6666C152.704 21.0016 152.704 26.3366 152.704 31.8333C151.429 31.8333 150.154 31.8333 148.84 31.8333C148.674 30.9258 148.674 30.9258 148.504 30C148.324 30.1753 148.144 30.3506 147.958 30.5312C146.538 31.7667 144.77 32.2274 142.912 32.2025C140.913 32.0455 139.472 31.1866 138.173 29.7155C137.048 28.3494 136.553 26.7058 136.557 24.9568C136.557 24.75 136.557 24.5432 136.557 24.3301C136.558 24.1061 136.559 23.8822 136.56 23.6582C136.56 23.4277 136.56 23.1972 136.56 22.9667C136.561 22.362 136.563 21.7573 136.564 21.1526C136.566 20.5348 136.567 19.917 136.568 19.2991C136.57 18.0883 136.573 16.8775 136.576 15.6666Z" fill="#3584C5"/>
<path d="M167.824 17.1666C167.724 17.7015 167.559 18.0021 167.199 18.4088C167.108 18.512 167.018 18.6151 166.925 18.7213C166.83 18.827 166.735 18.9327 166.637 19.0416C166.542 19.1499 166.447 19.2582 166.348 19.3698C166.113 19.6363 165.877 19.9016 165.64 20.1666C165.536 20.0983 165.433 20.03 165.326 19.9596C163.862 19.0357 162.51 18.6524 160.768 18.8333C160.059 18.9995 159.442 19.1492 158.92 19.6666C158.843 20.2516 158.839 20.5513 159.182 21.0416C160.078 21.6795 161.151 21.7228 162.217 21.8125C164.094 21.9993 166.069 22.3302 167.488 23.6666C168.546 25.0688 168.815 26.2647 168.664 28C168.377 29.1986 167.772 30.2105 166.816 31C164.191 32.5919 161.377 32.7429 158.416 32.1666C156.953 31.7752 155.857 31.1442 154.72 30.1666C154.497 29.9983 154.274 29.8312 154.048 29.6666C154.312 28.8786 154.755 28.2761 155.245 27.6146C155.324 27.507 155.402 27.3995 155.483 27.2887C155.676 27.0252 155.87 26.7625 156.064 26.5C156.15 26.5625 156.236 26.625 156.324 26.6894C158.167 27.9767 160.287 28.883 162.571 28.5801C163.373 28.4114 163.842 28.1752 164.296 27.5C164.38 26.9166 164.38 26.9166 164.296 26.3333C163.862 25.9288 163.491 25.7599 162.91 25.6562C162.69 25.6166 162.69 25.6166 162.466 25.5762C161.965 25.503 161.463 25.4463 160.96 25.3924C158.8 25.1556 156.742 24.5937 155.318 22.8541C154.647 21.8855 154.432 20.8383 154.552 19.6666C154.878 18.3032 155.436 17.3479 156.568 16.5C159.983 14.4218 164.689 14.6928 167.824 17.1666Z" fill="#3584C5"/>
<path d="M78.28 16.6666C78.6295 16.934 78.9588 17.2078 79.288 17.5C79.0092 18.1759 78.5314 18.6694 78.0385 19.1979C77.9561 19.2889 77.8737 19.3799 77.7888 19.4736C77.3987 19.8951 77.1558 20.1495 76.6 20.3333C76.2436 20.1732 76.2436 20.1732 75.8545 19.9375C74.7155 19.253 73.4996 19.1295 72.19 19.416C71.1021 19.7891 70.1823 20.3169 69.649 21.3541C69.054 22.6732 68.9926 24.2295 69.3169 25.6406C69.7658 26.752 70.5753 27.4865 71.665 27.9791C73.0846 28.435 74.5467 28.2908 75.8912 27.6946C76.3056 27.4783 76.7051 27.2431 77.104 27C77.2082 27.1047 77.2082 27.1047 77.3146 27.2115C77.6289 27.5269 77.944 27.8415 78.259 28.1562C78.3684 28.2661 78.4777 28.376 78.5904 28.4892C78.7479 28.6463 78.748 28.6463 78.9087 28.8066C79.0538 28.9519 79.0538 28.9519 79.2019 29.1002C79.4504 29.3499 79.4504 29.3499 79.792 29.5C79.2893 30.7253 77.877 31.3211 76.7155 31.8125C74.6248 32.6487 71.9853 32.624 69.88 31.8333C67.7926 30.9252 66.2722 29.5874 65.344 27.5C64.9082 26.2529 64.7524 25.0865 64.7665 23.7708C64.7678 23.6035 64.769 23.4362 64.7703 23.2639C64.8195 21.063 65.4331 19.3527 66.94 17.7083C67.0786 17.5846 67.2172 17.4608 67.36 17.3333C67.509 17.1958 67.658 17.0583 67.8115 16.9166C70.7114 14.6064 75.2968 14.4985 78.28 16.6666Z" fill="#3584C5"/>
</g>
<defs>
<clipPath id="clip0_117_45">
<rect width="169" height="40" fill="white"/>
</clipPath>
</defs>
</svg>
