<svg width="416" height="160" viewBox="0 0 416 160" fill="none" xmlns="http://www.w3.org/2000/svg">
<g clip-path="url(#clip0_27_637)">
<g opacity="0.99">
<mask id="mask0_27_637" style="mask-type:luminance" maskUnits="userSpaceOnUse" x="0" y="8" width="416" height="160">
<path d="M415.169 8H0V167.524H415.169V8Z" fill="white"/>
</mask>
<g mask="url(#mask0_27_637)">
<path fill-rule="evenodd" clip-rule="evenodd" d="M269.943 136.187L263.334 124.667L256.854 124.197L275.356 113.515L272.501 119.667L279.195 130.846L292.678 154.199C291.05 158.501 287.877 160.127 283.427 159.54L269.943 136.187Z" fill="white"/>
<path fill-rule="evenodd" clip-rule="evenodd" d="M269.943 136.187L263.334 124.667L256.854 124.197L275.356 113.515L272.501 119.667L279.195 130.846L292.678 154.199C291.05 158.501 287.877 160.127 283.427 159.54L269.943 136.187Z" fill="white"/>
<path d="M205.555 83.5567C205.555 60.8517 223.961 42.4453 246.666 42.4453C269.371 42.4453 287.777 60.8516 287.777 83.5566C287.777 97.2975 281.034 109.462 270.678 116.927L269.959 115.68C279.323 108.545 285.373 97.2782 285.373 84.6075C285.373 63.059 267.878 45.5645 246.33 45.5644C224.781 45.5644 207.286 63.0589 207.285 84.6074C207.285 106.157 224.781 123.652 246.33 123.652C251.735 123.652 256.885 122.55 261.568 120.56L262.188 121.633C257.398 123.588 252.159 124.668 246.666 124.668C223.961 124.668 205.555 106.262 205.555 83.5567ZM213.546 84.6079C213.546 66.5155 228.236 51.8254 246.329 51.8253C264.423 51.8253 279.112 66.5158 279.112 84.6083C279.112 94.9603 274.301 104.196 266.798 110.206L253.43 87.0512L258.477 84.1363L259.811 86.4498L269.062 81.109L255.711 57.9842L246.461 63.3254L247.796 65.6376L229.298 76.3178L227.961 74.0052L218.712 79.3464L232.062 102.469L241.313 97.13L239.978 94.8178L245.024 91.9029L258.41 115.089C254.671 116.574 250.595 117.391 246.33 117.391C228.237 117.391 213.546 102.701 213.546 84.6079Z" fill="white"/>
<path fill-rule="evenodd" clip-rule="evenodd" d="M223.273 44.6679C245.315 31.9416 273.543 39.5052 286.269 61.5476C298.996 83.5909 291.432 111.818 269.39 124.545C247.347 137.271 219.119 129.708 206.392 107.665C193.666 85.6221 201.23 57.3941 223.273 44.6679ZM226.971 51.0725C208.463 61.758 202.112 85.4598 212.797 103.967C223.482 122.475 247.184 128.826 265.692 118.14C284.2 107.454 290.55 83.7532 279.864 65.2454C269.179 46.7384 245.478 40.387 226.971 51.0725Z" fill="white"/>
<path d="M372.46 111.948C368.99 111.948 366.021 111.179 363.552 109.64C361.084 108.102 359.188 106.107 357.864 103.657C356.541 101.206 355.879 98.5855 355.879 95.7956C355.879 92.1098 356.791 89.0066 358.615 86.4849C360.44 83.9623 362.784 81.9407 365.646 80.4202C368.507 78.8998 371.53 77.7999 374.715 77.1206C377.899 76.4404 380.85 76.1012 383.569 76.1012C384.106 76.1012 384.973 76.1549 386.172 76.2622C387.37 76.3695 388.577 76.4854 389.794 76.6109C391.01 76.7355 391.851 76.8341 392.316 76.906L392.369 68.9635C392.406 64.9213 391.412 62.1304 389.392 60.5917C387.37 59.054 384.767 58.2847 381.583 58.2847C379.759 58.2847 377.934 58.598 376.11 59.2236C374.286 59.8492 372.532 60.6368 370.851 61.5853C369.169 62.5328 367.622 63.4899 366.209 64.4557C364.796 65.4214 363.589 66.2262 362.586 66.871H360.44L360.065 56.4059C362.139 55.6193 364.259 54.8586 366.424 54.1256C368.588 53.3927 370.95 52.7843 373.507 52.3014C376.065 51.8186 378.972 51.5762 382.227 51.5762C385.734 51.5762 389.078 52.0868 392.262 53.1062C395.447 54.1256 398.059 55.968 400.097 58.6334C402.136 61.2988 403.138 65.1177 403.103 70.0902L402.996 99.8732C402.996 101.197 403.522 102.28 404.578 103.12C405.633 103.961 406.805 104.381 408.094 104.381C408.808 104.381 409.658 104.203 410.642 103.844C411.626 103.487 412.529 103.112 413.352 102.718H414.211V107.226C413.531 107.727 412.538 108.352 411.232 109.103C409.926 109.854 408.558 110.517 407.127 111.089C405.696 111.661 404.408 111.948 403.264 111.948C399.901 111.948 397.387 111.16 395.724 109.586C394.06 108.012 393.229 105.544 393.229 102.181H392.53C390.563 104.971 388.372 107.065 385.957 108.46C383.543 109.854 381.154 110.785 378.793 111.25C376.432 111.715 374.321 111.948 372.46 111.948ZM377.719 104.22C380.045 104.22 382.666 103.729 385.581 102.745C388.497 101.761 390.742 100.195 392.316 98.049V81.843C387.343 81.843 382.978 82.1553 379.223 82.7819C375.466 83.4076 372.541 84.5793 370.448 86.2971C368.355 88.014 367.309 90.5357 367.309 93.8631C367.309 96.5467 367.845 98.6392 368.919 100.141C369.992 101.645 371.334 102.7 372.943 103.308C374.554 103.916 376.145 104.22 377.719 104.22Z" fill="white"/>
<path d="M302.001 110.821V106.904L308.601 104.757C309.209 104.578 309.719 104.283 310.13 103.871C310.542 103.46 310.748 102.879 310.748 102.128V64.8849C310.748 63.9546 310.488 63.2303 309.969 62.712C309.451 62.1927 308.887 61.8085 308.279 61.5585L301.625 58.7675V54.9573L320.622 52.0064V64.5093H321.158C323.34 61.3965 325.38 58.8931 327.276 56.997C329.172 55.101 331.059 53.7232 332.937 52.8648C334.816 52.0064 336.756 51.5762 338.759 51.5762C340.513 51.5762 342.266 51.7735 344.018 52.1673C345.772 52.5601 347.364 53.3831 348.794 54.6353V67.9977H342.248L340.692 63.8655C340.334 62.9707 339.556 62.2559 338.357 61.7194C337.158 61.1819 335.969 60.9137 334.789 60.9137C332.749 60.9137 330.934 61.3697 329.341 62.2828C327.75 63.1949 326.319 64.3302 325.049 65.6897C323.779 67.0492 322.572 68.4087 321.427 69.7683V102.128C321.427 103.523 322.142 104.399 323.573 104.757L331.891 106.904V110.821H302.001Z" fill="white"/>
<path d="M130.439 110.82V106.902L135.538 104.594C136.182 104.309 136.835 103.897 137.497 103.36C138.159 102.824 138.687 102.305 139.079 101.804L154.695 82.5929L139.509 61.6108C139.079 61.0024 138.597 60.4563 138.06 59.9735C137.524 59.4906 136.897 59.1236 136.182 58.8736L130.923 56.9421V53.0781H155.555V56.9421L150.51 59.4101L158.827 71.001L161.887 76.7438H162.423L175.088 60.1076L170.956 56.9421V53.0781H189.845V56.9421L184.747 59.3028C184.139 59.5529 183.539 59.938 182.949 60.4563C182.359 60.9756 181.831 61.5208 181.366 62.0937L166.233 80.4994L181.957 102.234C182.458 102.913 182.986 103.494 183.539 103.977C184.094 104.46 184.711 104.827 185.391 105.077L190.489 106.902V110.82H165.858V106.902L171.01 104.541L162.048 92.0913L159.042 86.3495H158.452L145.305 103.79L149.49 106.902V110.82H130.439Z" fill="white"/>
<path d="M97.6525 112.055C92.4645 112.055 87.7785 110.919 83.5926 108.647C79.4068 106.376 76.0975 103.021 73.665 98.5855C71.2324 94.1496 70.0156 88.7115 70.0156 82.2722C70.0156 76.5122 71.1874 71.3156 73.5308 66.6832C75.8743 62.0499 79.1299 58.3738 83.2975 55.6547C87.4652 52.9357 92.3035 51.5762 97.8135 51.5762C102.893 51.5762 107.231 52.632 110.826 54.7426C114.422 56.8533 117.176 59.6442 119.091 63.1144C121.005 66.5846 121.962 70.3584 121.962 74.437C121.962 74.9026 121.944 75.5014 121.908 76.2353C121.872 76.9683 121.828 77.6926 121.774 78.4083C121.721 79.124 121.622 79.7323 121.479 80.2325H80.3725L80.6944 74.6516H110.531C110.531 71.146 110.093 68.105 109.217 65.5287C108.34 62.9534 106.927 60.9587 104.977 59.5455C103.027 58.1323 100.425 57.4262 97.1696 57.4262C94.0214 57.4262 91.4096 58.0969 89.3344 59.4382C87.2592 60.7795 85.6228 62.5596 84.4242 64.7776C83.2257 66.9956 82.3759 69.4195 81.8748 72.0495C81.3747 74.6784 81.1236 77.2634 81.1236 79.8032C81.1236 84.3474 81.7771 88.4432 83.0829 92.0926C84.3888 95.7419 86.5263 98.6305 89.4954 100.759C92.4645 102.887 96.454 103.952 101.463 103.952C104.217 103.952 106.793 103.549 109.19 102.745C111.587 101.94 113.733 100.983 115.629 99.8732C117.525 98.7647 119.082 97.7453 120.298 96.815H121.801V102.986C119.117 105.169 115.647 107.226 111.39 109.157C107.133 111.089 102.553 112.055 97.6525 112.055Z" fill="white"/>
<path d="M0.628906 110.82V106.796L8.89238 104.166C9.42986 103.987 9.90316 103.692 10.3151 103.28C10.7262 102.869 10.9321 102.27 10.9321 101.483V43.0974C10.9321 42.3462 10.7444 41.7733 10.3688 41.3795C9.99322 40.9867 9.50076 40.7002 8.89238 40.5211L0.628906 37.7848V33.8672H32.6117V37.7848L24.2945 40.5211C23.7216 40.7002 23.2301 40.9953 22.8181 41.4063C22.4071 41.8183 22.2011 42.3817 22.2011 43.0974V104.273H49.8917C50.5 104.273 51.0184 104.068 51.4476 103.656C51.8768 103.245 52.1451 102.699 52.2524 102.02L54.6141 86.2428H61.107V110.82H0.628906Z" fill="white"/>
</g>
</g>
</g>
<defs>
<clipPath id="clip0_27_637">
<rect width="416" height="160" fill="white"/>
</clipPath>
</defs>
</svg>
