<svg xmlns="http://www.w3.org/2000/svg" width="160" height="160" viewBox="205 35 85 130" fill="none">
  <g opacity="0.99">
    <path fill-rule="evenodd" clip-rule="evenodd" d="M269.943 136.187L263.334 124.667L256.854 124.197L275.356 113.515L272.501 119.667L279.195 130.846L292.678 154.199C291.05 158.501 287.877 160.127 283.427 159.54L269.943 136.187Z" fill="#47ABAA"/>
    <path d="M205.555 83.5567C205.555 60.8517 223.961 42.4453 246.666 42.4453C269.371 42.4453 287.777 60.8516 287.777 83.5566C287.777 97.2975 281.034 109.462 270.678 116.927L269.959 115.68C279.323 108.545 285.373 97.2782 285.373 84.6075C285.373 63.059 267.878 45.5645 246.33 45.5644C224.781 45.5644 207.286 63.0589 207.285 84.6074C207.285 106.157 224.781 123.652 246.33 123.652C251.735 123.652 256.885 122.55 261.568 120.56L262.188 121.633C257.398 123.588 252.159 124.668 246.666 124.668C223.961 124.668 205.555 106.262 205.555 83.5567ZM213.546 84.6079C213.546 66.5155 228.236 51.8254 246.329 51.8253C264.423 51.8253 279.112 66.5158 279.112 84.6083C279.112 94.9603 274.301 104.196 266.798 110.206L253.43 87.0512L258.477 84.1363L259.811 86.4498L269.062 81.109L255.711 57.9842L246.461 63.3254L247.796 65.6376L229.298 76.3178L227.961 74.0052L218.712 79.3464L232.062 102.469L241.313 97.13L239.978 94.8178L245.024 91.9029L258.41 115.089C254.671 116.574 250.595 117.391 246.33 117.391C228.237 117.391 213.546 102.701 213.546 84.6079Z" fill="#A98B1F"/>
    <path fill-rule="evenodd" clip-rule="evenodd" d="M223.273 44.6679C245.315 31.9416 273.543 39.5052 286.269 61.5476C298.996 83.5909 291.432 111.818 269.39 124.545C247.347 137.271 219.119 129.708 206.392 107.665C193.666 85.6221 201.23 57.3941 223.273 44.6679ZM226.971 51.0725C208.463 61.758 202.112 85.4598 212.797 103.967C223.482 122.475 247.184 128.826 265.692 118.14C284.2 107.454 290.55 83.7532 279.864 65.2454C269.179 46.7384 245.478 40.387 226.971 51.0725Z" fill="#47ABAA"/>
  </g>
</svg>
